<?xml version="1.0" encoding="UTF-8"?>
<svg height="128px" viewBox="0 0 128 128" width="128px" xmlns="http://www.w3.org/2000/svg" xmlns:xlink="http://www.w3.org/1999/xlink">
    <linearGradient id="a" gradientUnits="userSpaceOnUse" x1="115.32752952881" x2="12.88439655589" y1="114.11532349992" y2="115.04845674374">
        <stop offset="0" stop-color="#676767"/>
        <stop offset="0.166206" stop-color="#171717"/>
        <stop offset="0.819609" stop-color="#1f1f1f"/>
        <stop offset="1" stop-color="#575757"/>
    </linearGradient>
    <linearGradient id="b" gradientUnits="userSpaceOnUse" x1="12.940572804" x2="115.32752952881" y1="95.98053361146" y2="95.98053361146">
        <stop offset="0" stop-color="#c2c2c2"/>
        <stop offset="0.0886418" stop-color="#838383"/>
        <stop offset="0.354115" stop-color="#717171"/>
        <stop offset="0.504258" stop-color="#c0c0c0"/>
        <stop offset="0.664383" stop-color="#707070"/>
        <stop offset="0.906845" stop-color="#808080"/>
        <stop offset="1" stop-color="#c6c6c6"/>
    </linearGradient>
    <linearGradient id="c" gradientUnits="userSpaceOnUse" x1="8.08601734812" x2="119.91601392014" y1="87.780056566" y2="87.780056566">
        <stop offset="0" stop-color="#acabae"/>
        <stop offset="0.396532" stop-color="#7c7a82"/>
        <stop offset="0.443254" stop-color="#9e9da1"/>
        <stop offset="0.495729" stop-color="#7c7a82"/>
        <stop offset="0.56865" stop-color="#a2a0a7"/>
        <stop offset="0.652357" stop-color="#7c7a82"/>
        <stop offset="1" stop-color="#b0b0b2"/>
    </linearGradient>
    <linearGradient id="d" gradientUnits="userSpaceOnUse" x1="8.00036423032" x2="120.00059850287" y1="69.24818924748" y2="69.24818924748">
        <stop offset="0" stop-color="#8ff0a4"/>
        <stop offset="0.96329" stop-color="#df8ff0"/>
    </linearGradient>
    <linearGradient id="e" gradientUnits="userSpaceOnUse" x1="12.67350552881" x2="105.99534552881" y1="97.40479636874" y2="47.23519449107">
        <stop offset="0"/>
        <stop offset="0.524844" stop-color="#5b5b5b"/>
        <stop offset="0.608275" stop-color="#5a5a5a"/>
        <stop offset="1"/>
    </linearGradient>
    <path d="m 22.003906 76.785156 s -9.121094 33.597656 -9.121094 38.261719 c 0 4.667969 18.664063 -9.332031 32.664063 -9.332031 c 13.996094 0 7.96875 -19.597656 18.453125 -19.597656 s 4.878906 19.597656 18.875 19.597656 c 14 0 33.792969 13.859375 32.664062 9.332031 l -9.542968 -38.261719" fill="url(#a)"/>
    <path d="m 8.007812 72.121094 s 4.664063 32.660156 4.664063 37.328125 c 0 4.664062 18.664063 -9.332031 32.664063 -9.332031 c 13.996093 0 8.179687 -14 18.664062 -14 s 4.667969 14 18.664062 14 c 14 0 32.082032 13.960937 32.664063 9.332031 l 4.671875 -37.335938" fill="url(#b)"/>
    <path d="m 8.085938 76.710938 c 4.585937 18.738281 18.785156 20.199218 32.582031 21.945312 c 13.890625 1.761719 14 -12.539062 23.332031 -12.539062 s 9.476562 14.558593 23.332031 12.539062 c 14.253907 -2.078125 27.996094 -3.207031 32.582031 -21.945312" fill="url(#c)"/>
    <path d="m 63.300781 43.683594 l -0.21875 0.003906 h -0.414062 l -0.199219 0.003906 h -0.382812 l -0.183594 0.003906 h -0.183594 l -0.183594 0.003907 h -0.179687 l -0.183594 0.003906 h -0.179687 l -0.179688 0.003906 h -0.183594 l -0.375 0.007813 l -0.195312 0.003906 l -0.199219 0.003906 l -0.203125 0.003906 h -0.210938 l -0.21875 0.003907 l -0.222656 0.003906 l -0.234375 0.003906 l -0.242187 0.007813 l -0.253906 0.003906 l -0.261719 0.007812 l -0.273438 0.003907 l -0.289062 0.007812 l -0.296875 0.003907 l -0.316406 0.007812 l -0.324219 0.011719 l -0.34375 0.003906 l -0.359375 0.011719 l -0.375 0.011718 l -0.394532 0.007813 l -0.410156 0.015625 l -0.429687 0.011719 l -0.445313 0.019531 l -0.46875 0.015625 l -0.492187 0.019531 l -0.515625 0.019532 l -0.53125 0.023437 l -0.558594 0.019531 l -0.578125 0.023438 l -0.609375 0.027344 l -1.742188 0.09375 l -1.707031 0.132812 l -1.664062 0.160156 l -1.628907 0.199219 l -1.589843 0.222656 l -1.550781 0.257813 l -1.511719 0.277344 l -1.476563 0.308593 l -1.441406 0.328125 l -1.40625 0.347656 l -1.367188 0.367188 l -1.332031 0.386719 l -1.308593 0.414062 l -1.265626 0.433594 l -1.230468 0.460937 l -1.1875 0.480469 l -1.144532 0.5 l -1.109374 0.519531 l -1.070313 0.535157 l -1.03125 0.550781 l -0.996094 0.5625 l -0.957031 0.574219 l -0.925781 0.582031 l -0.890625 0.59375 l -0.871094 0.609375 l -0.828125 0.625 l -0.789063 0.632813 l -0.746093 0.640624 l -0.707031 0.648438 l -0.667969 0.652344 l -0.632813 0.660156 l -0.59375 0.660156 l -0.554687 0.664063 l -0.523438 0.667969 l -0.488281 0.664062 l -0.449219 0.667969 l -0.421875 0.671875 l -0.382812 0.667968 l -0.347656 0.667969 l -0.308594 0.664063 l -0.269532 0.65625 l -0.238281 0.65625 l -0.195312 0.648437 l -0.164063 0.644531 l -0.121094 0.636719 l -0.09375 0.632813 l -0.050781 0.621094 l -0.019531 0.613281 v 6.242187 l 0.035156 1.070313 l 0.101563 1.03125 l 0.164062 0.988281 l 0.226563 0.945312 l 0.289062 0.902344 l 0.339844 0.859375 l 0.398438 0.820313 l 0.449218 0.777344 l 0.496094 0.742187 l 0.546875 0.707031 l 0.59375 0.671875 l 0.636719 0.632813 l 0.664062 0.597656 l 0.707032 0.582031 l 0.742187 0.558594 l 0.78125 0.539063 l 0.8125 0.519531 l 0.835937 0.496093 l 0.867188 0.476563 l 0.890625 0.449219 l 0.90625 0.429687 l 0.929687 0.40625 l 0.945313 0.382813 l 0.953125 0.355468 l 0.957031 0.332032 l 0.964844 0.324218 l 0.976563 0.308594 l 0.984374 0.292969 l 0.988282 0.285156 l 0.988281 0.261719 l 0.984375 0.25 l 0.980469 0.234375 l 0.972656 0.214844 l 0.960937 0.195312 l 0.945313 0.175781 l 0.929687 0.15625 l 0.90625 0.132813 l 0.886719 0.125 l 0.867188 0.109375 l 0.839843 0.09375 l 0.816407 0.082031 l 0.785156 0.066407 l 0.753906 0.050781 l 0.722657 0.035156 l 0.679687 0.019531 l 0.640625 0.003906 l 0.601562 -0.015624 l 0.554688 -0.03125 l 0.605469 -0.066407 l 0.585937 -0.089843 l 0.566406 -0.121094 l 0.542969 -0.148438 l 0.527344 -0.175781 l 0.507813 -0.195313 l 0.492187 -0.222656 l 0.476563 -0.242187 l 0.460937 -0.265625 l 0.449219 -0.28125 l 0.433594 -0.304688 l 0.417968 -0.320312 l 0.40625 -0.335938 l 0.402344 -0.351562 l 0.386719 -0.359375 l 0.382812 -0.375 l 0.371094 -0.378907 l 0.367187 -0.390624 l 0.363282 -0.398438 l 0.355468 -0.402344 l 0.355469 -0.40625 l 1.390625 -1.65625 l 0.347656 -0.410156 l 0.351563 -0.40625 l 0.351563 -0.398438 l 0.355468 -0.394531 l 0.363282 -0.386719 l 0.367187 -0.378906 l 0.371094 -0.363281 l 0.382812 -0.355469 l 0.386719 -0.34375 l 0.402344 -0.328125 l 0.40625 -0.3125 l 0.421875 -0.296875 l 0.433593 -0.277344 l 0.445313 -0.253906 l 0.460937 -0.238281 l 0.472657 -0.214844 l 0.496093 -0.1875 l 0.507813 -0.164062 l 0.523437 -0.136719 l 0.546876 -0.105469 l 0.5625 -0.082031 l 0.585937 -0.046875 l 0.609375 -0.015625 l 0.605469 0.015625 l 0.589843 0.046875 l 0.5625 0.082031 l 0.546876 0.105469 l 0.527343 0.136719 l 0.507813 0.164062 l 0.492187 0.1875 l 0.472657 0.214844 l 0.460937 0.238281 l 0.449219 0.253906 l 0.433594 0.277344 l 0.417968 0.296875 l 0.410156 0.3125 l 0.398438 0.328125 l 0.390625 0.34375 l 0.378906 0.355469 l 0.375 0.363281 l 0.367188 0.378906 l 0.359375 0.386719 l 0.359375 0.394531 l 0.351562 0.398438 l 0.347657 0.40625 l 0.347656 0.410156 l 0.695312 0.828125 l 0.351563 0.414063 l 0.347656 0.414062 l 0.351563 0.40625 l 0.359374 0.402344 l 0.359376 0.398438 l 0.367187 0.390624 l 0.375 0.378907 l 0.378906 0.375 l 0.390625 0.359375 l 0.398438 0.351562 l 0.40625 0.335938 l 0.421875 0.320312 l 0.433593 0.304688 l 0.449219 0.28125 l 0.457031 0.265625 l 0.476563 0.242187 l 0.492187 0.222656 l 0.507813 0.195313 l 0.527344 0.175781 l 0.546875 0.148438 l 0.5625 0.121094 l 0.585937 0.089843 l 0.605469 0.066407 l 0.554688 0.03125 l 0.601562 0.015624 l 0.640625 -0.003906 l 0.683594 -0.019531 l 0.722656 -0.035156 l 0.75 -0.050781 l 0.789063 -0.066407 l 0.816406 -0.082031 l 0.839844 -0.09375 l 0.867187 -0.109375 l 0.886719 -0.125 l 0.902344 -0.132813 l 0.929687 -0.15625 l 0.949219 -0.175781 l 0.957031 -0.195312 l 0.976563 -0.214844 l 0.980468 -0.234375 l 0.984375 -0.25 l 0.988281 -0.261719 l 0.984376 -0.285156 l 0.988281 -0.292969 l 0.972656 -0.308594 l 0.96875 -0.324218 l 0.953125 -0.332032 l 0.957031 -0.355468 l 0.941407 -0.382813 l 0.929687 -0.40625 l 0.910156 -0.429687 l 0.890625 -0.449219 l 0.863282 -0.476563 l 0.839843 -0.496093 l 0.8125 -0.519531 l 0.777344 -0.539063 l 0.742187 -0.558594 l 0.707032 -0.582031 l 0.667968 -0.597656 l 0.636719 -0.632813 l 0.589844 -0.671875 l 0.546875 -0.707031 l 0.496094 -0.742187 l 0.453125 -0.777344 l 0.394531 -0.820313 l 0.34375 -0.859375 l 0.285156 -0.902344 l 0.230469 -0.945312 l 0.160156 -0.988281 l 0.101563 -1.03125 l 0.035156 -1.070313 v -6.242187 l -0.019531 -0.613281 l -0.050781 -0.621094 l -0.089844 -0.632813 l -0.125 -0.636719 l -0.160156 -0.644531 l -0.199219 -0.648437 l -0.234375 -0.65625 l -0.273438 -0.65625 l -0.304687 -0.664063 l -0.347657 -0.667969 l -0.382812 -0.667968 l -0.421875 -0.671875 l -0.453125 -0.667969 l -0.484375 -0.664062 l -0.523437 -0.667969 l -0.558594 -0.664063 l -0.59375 -0.660156 l -0.628906 -0.660156 l -0.671876 -0.652344 l -0.707031 -0.648438 l -0.746093 -0.640624 l -0.785157 -0.632813 l -0.832031 -0.625 l -0.867188 -0.609375 l -0.890624 -0.59375 l -0.925782 -0.582031 l -0.960937 -0.574219 l -0.992188 -0.5625 l -1.035156 -0.550781 l -1.066406 -0.535157 l -1.109375 -0.519531 l -1.148438 -0.5 l -1.1875 -0.480469 l -1.226562 -0.460937 l -1.269532 -0.433594 l -1.308593 -0.414062 l -1.332031 -0.386719 l -1.367188 -0.367188 l -1.402344 -0.347656 l -1.441406 -0.328125 l -1.476562 -0.308593 l -1.515626 -0.277344 l -1.550781 -0.257813 l -1.589843 -0.222656 l -1.628907 -0.199219 l -1.664062 -0.160156 l -1.707031 -0.132812 l -1.742188 -0.09375 l -0.605469 -0.027344 l -0.582031 -0.023438 l -0.558594 -0.019531 l -0.535156 -0.023437 l -0.507812 -0.019532 l -0.492188 -0.019531 l -0.46875 -0.015625 l -0.449219 -0.019531 l -0.429687 -0.011719 l -0.40625 -0.015625 l -0.394532 -0.007813 l -0.375 -0.011718 l -0.359374 -0.011719 l -0.34375 -0.003906 l -0.328126 -0.011719 l -0.3125 -0.007812 l -0.300781 -0.003907 l -0.285156 -0.007812 l -0.277344 -0.003907 l -0.261719 -0.007812 l -0.25 -0.003906 l -0.246093 -0.007813 l -0.234375 -0.003906 l -0.222656 -0.003906 l -0.21875 -0.003907 h -0.210938 l -0.398438 -0.007812 l -0.195312 -0.003906 l -0.191406 -0.003906 l -0.183594 -0.003907 h -0.183594 l -0.183594 -0.003906 h -0.179687 l -0.179687 -0.003906 h -0.183594 l -0.179688 -0.003907 h -0.183594 l -0.1875 -0.003906 h -0.382812 l -0.195312 -0.003906 h -0.417969 l -0.214844 -0.003906 z m 0 0" fill="url(#d)"/>
    <path d="m 63.132812 46.019531 c -16.230468 -0.054687 -34.359374 0.804688 -47.089843 12.183594 c -5.960938 4.945313 -6.882813 13.320313 -5.144531 20.410156 c 2.003906 6.847657 9.601562 9.332031 15.660156 11.441407 c 5.707031 1.398437 11.714844 2.910156 17.59375 2.175781 c 7.09375 -2.277344 9.257812 -11.308594 16.761718 -13.046875 c 7.691407 -2.199219 13.800782 4.414062 17.867188 10.011718 c 5.269531 5.460938 13.351562 2.765626 19.8125 1.609376 c 6.417969 -1.679688 13.523438 -4.023438 17.503906 -9.660157 c 2.402344 -5.464843 2.421875 -12.265625 -0.039062 -17.710937 c -5.929688 -9.644532 -17.429688 -14.070313 -28.125 -15.960938 c -8.1875 -1.394531 -16.519532 -1.441406 -24.800782 -1.453125 z m 0 0" fill="url(#e)"/>
</svg>
